<?xml version="1.0" standalone="no"?>
<!DOCTYPE svg PUBLIC "-//W3C//DTD SVG 20010904//EN"
 "http://www.w3.org/TR/2001/REC-SVG-20010904/DTD/svg10.dtd">
<svg version="1.0" xmlns="http://www.w3.org/2000/svg"
 width="1800.000000pt" height="1800.000000pt" viewBox="0 0 1800.000000 1800.000000"
 preserveAspectRatio="xMidYMid meet">
<g transform="translate(0.000000,1800.000000) scale(0.100000,-0.100000)"
fill="#000000" stroke="none">
<path d="M8563 17988 c1 -9 -15 -14 -53 -15 -30 -1 -89 -5 -130 -8 -41 -3
-122 -7 -180 -9 -100 -3 -137 -7 -375 -41 -55 -8 -156 -21 -225 -30 -69 -9
-143 -20 -165 -25 -78 -17 -191 -38 -240 -45 -27 -3 -72 -12 -100 -20 -103
-28 -171 -45 -220 -54 -74 -15 -126 -28 -165 -42 -19 -6 -52 -18 -73 -26 -20
-7 -49 -13 -63 -13 -23 0 -125 -30 -169 -50 -11 -5 -36 -11 -55 -13 -19 -3
-60 -14 -90 -26 -30 -13 -91 -33 -135 -46 -131 -40 -247 -80 -306 -109 -31
-14 -63 -26 -72 -26 -9 0 -50 -16 -91 -35 -41 -19 -80 -35 -86 -35 -6 0 -18
-4 -28 -9 -95 -50 -142 -71 -154 -71 -9 0 -40 -13 -71 -30 -31 -16 -65 -30
-76 -30 -11 0 -22 -4 -26 -9 -3 -6 -31 -21 -63 -35 -56 -26 -88 -41 -167 -83
-22 -12 -60 -31 -85 -43 -76 -36 -194 -101 -211 -116 -8 -8 -23 -14 -32 -14
-9 0 -18 -4 -22 -10 -3 -5 -39 -25 -80 -45 -40 -20 -79 -43 -85 -51 -7 -8 -18
-14 -24 -14 -6 0 -38 -18 -71 -40 -33 -22 -63 -40 -68 -40 -4 0 -30 -16 -57
-35 -27 -19 -53 -35 -58 -35 -4 0 -23 -13 -42 -30 -19 -16 -39 -29 -45 -30
-12 0 -138 -85 -183 -122 -18 -16 -37 -28 -43 -28 -6 0 -47 -28 -91 -62 -77
-60 -153 -116 -202 -148 -13 -8 -47 -34 -77 -58 -30 -23 -67 -53 -84 -65 -16
-12 -48 -38 -71 -57 -88 -74 -130 -109 -159 -131 -26 -20 -140 -117 -186 -159
-336 -306 -764 -747 -908 -935 -25 -33 -79 -99 -127 -154 -17 -20 -59 -74 -94
-121 -35 -47 -70 -89 -77 -93 -7 -4 -13 -13 -13 -18 0 -11 -55 -89 -87 -124
-30 -33 -123 -166 -123 -175 0 -5 -13 -24 -29 -42 -15 -18 -34 -44 -41 -57 -6
-13 -27 -44 -46 -68 -19 -25 -34 -50 -34 -56 -1 -7 -14 -28 -30 -47 -17 -19
-30 -38 -30 -43 0 -5 -16 -32 -35 -58 -19 -27 -35 -51 -35 -54 0 -2 -18 -33
-40 -67 -22 -35 -40 -68 -40 -74 0 -6 -6 -17 -14 -24 -8 -6 -31 -45 -51 -85
-20 -41 -40 -77 -45 -80 -6 -4 -10 -13 -10 -22 0 -9 -7 -24 -15 -32 -15 -18
-80 -137 -115 -211 -12 -25 -31 -63 -42 -85 -38 -69 -57 -108 -84 -167 -14
-32 -29 -60 -35 -63 -5 -4 -9 -15 -9 -26 0 -11 -13 -45 -30 -76 -16 -31 -30
-62 -30 -71 0 -12 -21 -59 -71 -154 -5 -10 -9 -23 -9 -29 0 -11 -28 -75 -56
-131 -8 -14 -14 -34 -14 -44 0 -9 -12 -42 -26 -73 -29 -59 -69 -175 -109 -306
-13 -44 -33 -105 -45 -135 -12 -30 -26 -73 -30 -95 -4 -22 -19 -75 -34 -118
-14 -43 -26 -86 -26 -97 0 -11 -12 -54 -26 -97 -27 -81 -38 -123 -55 -208 -9
-49 -27 -123 -54 -220 -8 -27 -17 -75 -21 -105 -4 -30 -15 -95 -26 -145 -17
-84 -36 -211 -73 -485 -9 -63 -22 -153 -29 -200 -7 -47 -14 -151 -15 -232 -1
-81 -6 -161 -11 -177 -12 -42 -11 -1057 0 -1101 6 -19 12 -107 14 -195 2 -88
9 -194 15 -235 6 -41 16 -109 22 -150 6 -41 14 -102 19 -135 5 -33 16 -112 25
-175 8 -63 22 -144 30 -180 8 -36 20 -101 25 -145 6 -44 17 -100 24 -125 31
-98 46 -158 55 -215 9 -58 13 -73 45 -180 9 -27 20 -70 27 -95 6 -25 24 -88
39 -140 16 -52 31 -106 33 -120 3 -14 15 -50 27 -80 12 -30 27 -78 35 -105 7
-28 21 -71 30 -95 9 -25 26 -74 37 -110 11 -36 33 -93 49 -128 16 -34 29 -70
29 -80 0 -10 13 -44 29 -76 17 -32 38 -80 47 -109 9 -28 30 -77 45 -108 16
-32 29 -63 29 -69 0 -6 14 -36 30 -67 17 -31 30 -60 30 -66 0 -13 97 -211 127
-259 13 -21 23 -46 23 -57 0 -11 4 -22 9 -26 6 -3 22 -31 36 -62 15 -30 44
-84 66 -120 21 -35 39 -66 39 -70 0 -3 14 -28 30 -55 17 -26 30 -53 30 -59 0
-6 12 -28 28 -48 15 -20 36 -54 47 -76 11 -22 30 -54 42 -71 13 -17 23 -36 23
-42 0 -6 6 -17 13 -24 22 -25 57 -77 57 -87 0 -5 11 -22 23 -38 13 -15 30 -40
38 -55 8 -14 41 -65 74 -113 33 -48 67 -98 75 -110 71 -107 111 -163 129 -179
11 -11 21 -25 21 -31 0 -7 7 -19 16 -26 9 -8 27 -30 40 -49 12 -19 38 -53 58
-75 20 -22 36 -44 36 -48 0 -11 90 -119 108 -130 6 -4 12 -13 12 -20 0 -7 22
-35 48 -63 26 -29 61 -68 77 -88 17 -21 53 -63 80 -94 28 -31 59 -67 70 -81
104 -123 549 -568 731 -732 87 -78 256 -219 262 -219 4 0 28 -19 53 -43 26
-23 70 -60 98 -82 29 -22 77 -61 109 -86 31 -25 62 -48 68 -50 6 -2 24 -14 40
-26 58 -45 160 -119 219 -158 33 -22 71 -50 85 -63 14 -12 28 -22 32 -22 5 0
35 -20 69 -45 34 -25 67 -45 74 -45 7 0 15 -4 17 -8 3 -7 30 -25 163 -104 11
-7 32 -20 47 -30 15 -10 48 -30 75 -44 26 -15 65 -40 87 -56 21 -15 44 -28 51
-28 7 0 31 -13 53 -30 23 -16 47 -30 53 -30 6 0 37 -15 68 -34 31 -18 124 -66
206 -105 83 -40 164 -79 180 -88 165 -85 269 -133 286 -133 8 0 23 -6 34 -14
11 -7 58 -28 105 -45 47 -18 96 -39 110 -46 14 -7 50 -20 80 -30 30 -10 84
-31 118 -47 35 -15 73 -28 84 -28 10 0 29 -5 41 -12 31 -17 83 -36 147 -54 30
-8 94 -31 141 -50 48 -18 97 -34 110 -34 13 0 61 -13 106 -29 44 -16 101 -32
125 -36 43 -7 93 -20 136 -36 12 -5 68 -18 125 -29 56 -12 145 -33 197 -47 52
-14 124 -30 160 -34 36 -5 108 -18 160 -30 52 -12 133 -25 180 -30 47 -4 141
-17 210 -28 358 -60 584 -74 1220 -74 626 0 802 11 1225 73 44 6 84 14 88 17
5 3 50 9 101 13 99 9 241 35 268 50 10 6 40 10 67 10 27 0 92 11 143 25 51 14
143 37 203 50 176 39 314 74 395 102 41 14 95 28 120 33 25 4 70 18 100 30 98
39 159 60 174 60 15 0 70 21 111 43 11 6 36 14 55 18 33 6 85 26 275 104 44
19 94 37 110 41 16 4 55 20 87 36 31 15 62 28 67 28 6 0 37 13 68 28 32 16
103 50 158 77 55 26 109 52 119 57 10 6 95 48 187 94 93 47 171 89 174 94 4 6
12 10 20 10 8 0 34 13 58 30 25 17 49 30 54 30 6 0 28 13 50 29 23 16 63 41
89 55 66 35 132 75 187 111 25 17 69 44 97 60 28 17 73 47 100 67 26 21 52 38
57 38 6 0 21 10 34 21 25 22 145 105 180 125 11 6 33 23 48 38 15 14 30 26 35
26 8 0 76 49 146 105 25 19 68 53 95 75 28 21 64 51 80 65 17 14 57 47 90 73
74 58 105 84 170 142 27 25 88 79 135 120 46 41 112 103 146 137 34 35 66 63
70 64 5 0 59 53 121 117 61 64 142 149 179 187 111 114 348 383 409 464 22 29
54 68 70 87 17 18 46 54 65 79 19 25 54 68 78 96 23 27 42 53 42 57 0 4 14 22
30 41 17 18 30 38 30 44 0 6 12 23 26 38 15 15 32 37 38 48 21 38 89 136 111
161 12 14 29 37 36 52 8 14 41 67 74 117 61 91 114 173 127 194 94 157 158
267 158 273 0 3 14 26 30 51 17 24 30 50 30 57 0 6 5 17 10 22 13 13 130 243
242 474 26 52 60 123 77 158 17 34 31 67 31 72 0 6 13 38 29 73 36 78 111 269
111 281 0 5 8 28 18 50 45 101 52 118 52 137 0 12 6 33 14 47 22 42 44 104 52
142 6 31 28 91 70 188 8 18 14 44 14 58 0 13 14 66 30 117 35 106 70 244 106
407 13 63 28 128 34 145 25 85 34 126 40 185 4 36 19 116 34 179 14 63 26 137
26 165 0 28 5 67 10 86 6 19 15 69 21 110 5 41 19 140 31 220 11 83 23 235 27
354 6 180 9 210 24 221 16 11 17 47 17 425 0 376 -2 414 -17 425 -14 11 -18
43 -24 226 -4 118 -12 248 -18 289 -31 220 -44 310 -53 355 -6 28 -13 88 -18
135 -4 47 -17 128 -29 180 -12 52 -26 127 -31 165 -5 39 -19 104 -30 145 -12
41 -32 125 -45 185 -14 61 -32 135 -41 165 -8 30 -22 84 -29 120 -8 36 -25 97
-39 135 -14 39 -26 81 -26 95 0 14 -18 69 -40 124 -22 54 -43 115 -46 134 -4
20 -18 61 -32 92 -14 30 -28 71 -32 90 -5 19 -23 73 -42 120 -19 47 -59 146
-88 220 -29 74 -59 144 -67 155 -7 11 -13 26 -13 35 0 8 -13 42 -30 75 -16 33
-38 80 -49 105 -11 25 -29 61 -39 80 -11 19 -57 112 -102 205 -45 94 -95 189
-111 213 -16 24 -29 47 -29 52 0 5 -14 32 -30 58 -16 27 -30 54 -30 59 0 6
-13 28 -28 49 -16 22 -41 62 -56 89 -16 28 -34 57 -41 65 -8 8 -18 26 -24 40
-6 14 -33 59 -61 100 -27 41 -54 86 -60 100 -6 14 -29 48 -51 77 -21 29 -39
55 -39 59 0 3 -13 23 -28 43 -51 64 -122 171 -122 181 0 5 -4 10 -9 10 -4 0
-21 19 -37 43 -16 23 -39 53 -51 67 -13 14 -23 28 -23 33 0 4 -21 34 -47 67
-27 32 -66 82 -87 110 -22 28 -55 67 -74 88 -19 20 -42 49 -51 64 -10 15 -37
49 -62 76 -24 27 -73 84 -107 126 -35 42 -68 76 -73 76 -5 0 -9 5 -9 10 0 25
-562 587 -729 730 -29 25 -66 56 -81 70 -16 14 -45 39 -65 55 -21 17 -60 51
-89 77 -28 26 -56 48 -63 48 -7 0 -16 6 -20 13 -10 16 -119 107 -128 107 -4 0
-31 20 -59 45 -29 25 -57 45 -63 45 -5 0 -22 14 -38 30 -16 17 -34 30 -40 30
-7 0 -20 10 -31 21 -16 18 -79 63 -179 129 -31 21 -214 142 -248 166 -16 10
-41 26 -55 34 -43 25 -86 54 -100 67 -7 7 -18 13 -24 13 -6 0 -25 10 -42 23
-17 12 -49 31 -71 42 -22 11 -56 32 -75 48 -19 15 -42 27 -50 27 -9 0 -20 4
-25 9 -6 4 -46 28 -90 51 -44 24 -91 51 -105 60 -14 9 -51 29 -82 43 -31 15
-60 32 -63 37 -3 6 -15 10 -26 10 -11 0 -36 11 -57 23 -44 29 -243 127 -255
127 -4 0 -35 14 -69 30 -33 17 -64 30 -69 30 -5 0 -33 12 -62 26 -28 14 -72
32 -97 41 -25 8 -78 30 -118 49 -40 19 -78 34 -85 34 -8 0 -51 16 -98 37 -46
20 -104 42 -129 49 -49 14 -166 53 -275 91 -38 14 -81 27 -95 29 -14 3 -68 18
-120 34 -52 15 -115 33 -140 39 -25 7 -67 18 -95 27 -107 32 -122 36 -180 45
-57 9 -117 24 -215 54 -25 8 -70 17 -100 20 -30 4 -98 16 -150 26 -52 11 -126
24 -165 30 -38 5 -101 13 -140 19 -38 5 -117 16 -175 25 -58 8 -139 20 -180
26 -41 6 -145 13 -230 15 -85 3 -171 7 -190 11 -19 4 -57 7 -85 7 -34 1 -49 5
-48 14 2 9 -88 12 -427 12 -339 0 -429 -3 -427 -12z m1037 -467 c74 -6 180
-17 235 -23 55 -6 136 -14 180 -18 77 -7 120 -14 325 -46 208 -33 519 -95 599
-120 25 -8 54 -14 66 -14 12 0 41 -6 66 -14 24 -7 73 -21 109 -31 75 -19 158
-42 215 -60 22 -6 65 -19 95 -28 94 -29 352 -115 410 -137 30 -12 66 -25 80
-30 14 -5 50 -18 80 -30 30 -12 67 -25 81 -30 14 -4 34 -12 45 -18 10 -6 60
-27 109 -47 50 -21 115 -49 145 -62 30 -14 75 -34 100 -45 156 -70 569 -282
685 -352 39 -23 77 -45 85 -49 8 -4 29 -16 45 -27 17 -11 39 -24 50 -30 11 -6
32 -18 47 -28 15 -9 57 -36 95 -60 136 -85 297 -193 398 -267 162 -119 231
-171 250 -187 11 -9 45 -36 76 -60 65 -50 202 -159 209 -168 3 -3 57 -50 120
-105 360 -310 830 -807 1060 -1120 40 -55 110 -149 155 -210 148 -200 332
-470 419 -615 15 -25 31 -52 36 -60 89 -143 121 -211 145 -305 83 -328 -171
-655 -510 -655 -211 0 -379 113 -520 350 -98 164 -241 381 -362 552 -102 143
-312 396 -528 637 -77 87 -376 389 -415 421 l-35 28 -185 -78 c-168 -71 -288
-120 -485 -200 -154 -62 -182 -73 -230 -95 -27 -12 -66 -28 -85 -35 -38 -14
-69 -27 -142 -59 -26 -12 -49 -21 -52 -21 -3 0 -29 -11 -58 -24 -29 -14 -98
-44 -153 -67 -55 -23 -122 -52 -150 -64 -27 -13 -123 -55 -212 -94 -90 -39
-193 -85 -230 -102 -38 -17 -97 -45 -133 -61 -36 -17 -83 -38 -105 -48 -22
-10 -65 -30 -95 -43 -30 -14 -109 -51 -175 -82 -66 -31 -145 -68 -175 -82
-248 -115 -1047 -514 -1395 -698 -44 -23 -129 -68 -190 -100 -60 -32 -137 -72
-170 -90 -33 -18 -91 -49 -130 -70 -152 -81 -563 -310 -623 -347 -34 -21 -64
-38 -67 -38 -5 0 -484 -286 -560 -335 -27 -18 -75 -47 -105 -66 -108 -67 -534
-352 -631 -422 -333 -240 -628 -474 -844 -671 -44 -40 -96 -86 -115 -102 -54
-45 -310 -300 -336 -335 -12 -17 -40 -50 -61 -72 -181 -195 -423 -566 -510
-783 -27 -67 -72 -224 -83 -290 -19 -109 -9 -332 19 -414 52 -153 120 -257
243 -376 201 -194 432 -321 888 -489 85 -31 171 -63 190 -70 19 -8 134 -48
255 -90 121 -42 236 -82 255 -89 19 -8 76 -28 125 -46 50 -17 106 -37 125 -45
19 -7 71 -27 116 -44 44 -17 84 -31 88 -31 25 0 661 -258 881 -357 200 -91
612 -298 690 -347 11 -7 52 -30 90 -51 39 -21 109 -63 157 -94 48 -31 123 -78
165 -105 251 -160 564 -390 802 -590 79 -67 159 -133 178 -147 107 -83 597
-563 779 -764 182 -200 411 -486 568 -709 87 -123 256 -380 295 -449 10 -18
36 -61 56 -97 122 -210 256 -480 326 -658 41 -102 49 -110 85 -84 16 10 101
67 189 126 413 275 757 557 1110 911 339 340 595 647 880 1058 90 129 287 447
352 567 17 30 45 81 62 113 17 31 52 99 77 150 25 50 50 99 55 107 5 8 13 24
18 35 5 11 27 59 50 108 22 48 41 90 41 92 0 3 13 33 29 67 15 35 43 99 61
143 31 77 38 93 74 178 9 21 16 46 16 55 0 10 4 22 9 27 5 6 14 26 19 45 6 19
16 51 23 70 6 19 17 51 24 70 7 19 20 62 30 95 9 33 23 76 30 95 12 33 22 68
60 208 9 31 21 73 27 92 7 19 15 53 19 75 8 43 22 99 45 181 8 28 14 61 14 74
0 13 6 46 14 74 8 28 22 96 31 151 9 55 22 136 30 180 17 100 39 265 61 460
14 122 18 258 20 735 2 518 4 592 19 645 71 247 275 408 518 407 195 -1 368
-103 466 -275 81 -143 105 -376 98 -934 -2 -208 -10 -439 -16 -513 -25 -281
-61 -595 -86 -735 -8 -44 -16 -96 -19 -115 -4 -34 -11 -73 -43 -230 -31 -153
-45 -216 -59 -266 -8 -28 -14 -59 -14 -69 0 -9 -6 -38 -14 -64 -8 -25 -22 -72
-30 -104 -22 -83 -45 -165 -61 -217 -7 -25 -20 -72 -30 -105 -10 -33 -22 -71
-28 -85 -5 -14 -13 -38 -17 -55 -5 -16 -18 -55 -30 -85 -12 -30 -26 -68 -30
-85 -8 -29 -18 -54 -60 -165 -12 -30 -25 -67 -30 -81 -4 -14 -12 -34 -18 -45
-5 -10 -18 -39 -27 -64 -9 -25 -24 -61 -32 -80 -9 -19 -22 -50 -29 -67 -86
-205 -228 -501 -325 -680 -19 -34 -46 -83 -61 -110 -50 -92 -70 -128 -142
-246 -39 -65 -76 -125 -81 -135 -83 -139 -249 -382 -409 -597 -296 -398 -717
-862 -1071 -1180 -60 -55 -117 -106 -125 -114 -85 -83 -635 -515 -732 -576 -9
-5 -76 -51 -149 -101 -74 -50 -156 -104 -182 -120 -27 -16 -59 -36 -72 -44
-19 -12 -94 -57 -210 -127 -11 -7 -27 -15 -35 -19 -8 -4 -31 -17 -50 -29 -95
-59 -520 -277 -630 -324 -58 -25 -113 -49 -223 -100 -37 -17 -71 -31 -76 -31
-9 0 -143 -55 -176 -73 -11 -5 -33 -14 -50 -18 -29 -7 -55 -17 -165 -59 -30
-12 -68 -26 -85 -30 -32 -9 -166 -54 -225 -75 -19 -7 -62 -20 -95 -30 -128
-37 -152 -44 -210 -60 -33 -9 -76 -22 -95 -28 -19 -6 -53 -14 -75 -18 -45 -9
-140 -31 -200 -47 -22 -5 -76 -18 -120 -27 -44 -9 -101 -21 -126 -26 -25 -6
-73 -14 -105 -19 -32 -5 -84 -13 -114 -19 -398 -74 -950 -121 -1420 -121 -251
0 -603 16 -767 36 -68 8 -140 14 -160 14 -21 0 -85 7 -143 15 -58 9 -136 21
-175 26 -38 6 -97 15 -130 19 -33 5 -87 14 -120 20 -33 7 -94 19 -135 27 -125
24 -223 44 -265 55 -60 16 -155 38 -200 47 -22 4 -56 12 -75 18 -19 6 -62 19
-95 28 -135 37 -326 96 -430 132 -38 14 -83 28 -100 33 -16 5 -55 18 -85 30
-30 12 -66 25 -80 30 -14 4 -36 12 -50 18 -14 5 -43 17 -65 25 -53 20 -191 75
-235 95 -19 8 -50 21 -67 28 -161 68 -487 226 -648 314 -49 27 -103 56 -120
64 -16 8 -52 29 -80 45 -27 16 -61 36 -75 43 -26 15 -154 92 -195 118 -13 8
-45 28 -72 44 -26 16 -104 68 -173 115 -69 46 -145 98 -170 115 -65 43 -363
266 -375 280 -5 7 -38 33 -72 59 -34 26 -68 53 -75 60 -7 7 -56 48 -108 92
-52 43 -120 102 -150 130 -30 29 -91 85 -135 125 -172 158 -455 452 -620 645
-33 38 -64 75 -70 81 -75 83 -348 435 -440 569 -80 116 -208 307 -245 365 -55
87 -59 94 -67 110 -4 8 -18 31 -31 50 -13 19 -28 44 -33 55 -5 11 -18 34 -29
50 -11 17 -23 37 -27 45 -3 8 -16 31 -28 50 -77 125 -275 519 -376 750 -11 25
-26 59 -34 75 -19 45 -105 254 -121 298 -8 20 -21 55 -29 77 -8 22 -22 58 -30
80 -39 105 -65 178 -75 215 -5 17 -14 46 -21 65 -6 19 -17 51 -24 70 -7 19
-20 62 -29 95 -10 33 -22 74 -28 90 -5 17 -13 46 -17 65 -4 19 -13 51 -19 70
-6 19 -18 63 -26 98 -9 34 -23 90 -32 125 -38 150 -46 189 -88 400 -30 152
-38 194 -46 257 -4 36 -12 92 -18 125 -33 187 -69 557 -83 860 -16 342 -2 913
30 1205 29 259 57 469 82 600 6 30 13 73 15 95 3 22 11 67 19 100 7 33 21 98
30 145 16 82 30 144 55 240 6 25 13 56 16 70 3 14 11 48 19 75 8 28 21 79 31
115 9 36 22 83 29 105 7 22 20 67 30 100 9 33 23 76 30 95 7 19 29 85 48 145
40 124 53 163 75 220 36 100 45 122 57 150 7 17 19 48 28 70 24 63 87 215 114
275 14 30 31 69 38 85 21 49 265 537 284 570 10 17 32 57 50 90 32 59 189 321
223 374 10 14 21 32 24 39 23 47 300 447 362 522 15 19 39 51 52 70 13 19 27
37 30 40 3 3 28 34 55 70 27 36 67 87 90 114 69 84 169 201 176 206 3 3 39 43
79 90 186 217 498 520 799 779 47 40 97 83 111 95 14 11 57 46 95 76 39 30 72
57 75 60 9 11 283 216 325 243 22 14 78 53 125 86 47 34 94 66 105 71 11 6 54
33 95 60 83 54 326 203 350 213 8 4 29 16 45 27 17 10 53 31 80 45 28 15 77
41 110 59 113 63 385 196 530 260 33 15 75 34 93 42 73 32 156 67 212 89 25
10 59 23 75 30 17 7 49 20 73 29 23 9 60 23 82 31 105 39 178 65 215 75 28 8
53 16 135 45 19 7 62 21 95 30 33 10 78 24 100 30 47 15 139 41 210 60 28 7
75 20 106 29 31 9 64 16 74 16 9 0 38 6 64 14 25 8 82 22 126 31 44 9 109 23
145 31 110 23 183 36 240 44 30 4 82 12 115 18 142 27 430 60 640 73 88 6 207
14 265 19 145 11 866 5 1030 -9z m4681 -3926 c30 -62 35 -70 82 -143 15 -24
27 -45 27 -48 0 -7 151 -207 166 -219 50 -42 153 -193 201 -294 80 -167 93
-197 93 -204 0 -3 10 -30 23 -59 26 -59 51 -123 102 -258 8 -19 25 -65 39
-101 56 -144 181 -535 232 -719 8 -30 19 -68 24 -85 12 -43 76 -306 95 -395 9
-41 21 -93 26 -115 10 -44 36 -181 49 -260 4 -27 18 -106 30 -175 29 -172 50
-310 60 -405 4 -44 18 -159 29 -255 41 -350 53 -590 57 -1080 3 -286 1 -501
-5 -540 -6 -36 -15 -139 -21 -230 -7 -91 -21 -237 -32 -325 -11 -88 -24 -192
-28 -232 -5 -40 -11 -76 -13 -80 -3 -5 -10 -44 -16 -88 -23 -166 -93 -505
-136 -655 -7 -25 -23 -81 -35 -125 -39 -140 -142 -439 -179 -520 -5 -11 -26
-58 -47 -105 -239 -545 -568 -1012 -904 -1286 -206 -168 -575 -383 -762 -445
-83 -28 -308 -31 -378 -7 -25 9 -74 25 -110 36 -93 29 -133 47 -153 70 -23 25
-16 29 56 31 75 1 112 25 247 157 125 122 147 139 355 276 417 274 593 439
817 763 222 322 439 794 544 1183 8 28 21 78 30 110 31 117 74 304 83 367 5
28 11 57 15 65 3 8 20 105 36 215 33 213 35 229 45 345 3 41 11 91 16 110 5
20 11 81 13 135 2 55 9 159 15 230 14 166 15 868 0 1045 -6 74 -12 180 -15
235 -2 55 -7 116 -11 135 -4 19 -8 51 -9 70 -4 77 -74 630 -82 650 -3 8 -6 24
-8 35 -6 57 -37 227 -64 360 -17 83 -35 170 -40 195 -52 260 -180 717 -361
1280 -15 47 -41 132 -59 190 -18 58 -38 125 -46 150 -75 238 -76 247 -85 455
-10 229 -21 351 -37 415 -14 56 -32 181 -32 218 1 26 1 26 16 7 9 -11 29 -47
45 -80z m-845 -627 c44 -46 136 -148 205 -228 68 -80 131 -153 139 -162 28
-31 127 -231 158 -318 92 -262 163 -615 187 -935 3 -44 10 -100 15 -125 21
-101 36 -1180 19 -1340 -5 -52 -11 -183 -13 -290 -3 -192 -31 -653 -62 -1005
-8 -99 -17 -225 -20 -280 -2 -55 -9 -113 -14 -130 -5 -16 -14 -88 -20 -160 -6
-71 -20 -195 -31 -275 -11 -80 -22 -170 -24 -200 -3 -30 -8 -66 -12 -80 -4
-14 -8 -34 -10 -45 -1 -11 -7 -47 -12 -80 -5 -33 -14 -82 -21 -110 -6 -27 -18
-84 -27 -125 -67 -319 -180 -625 -312 -848 -84 -143 -311 -396 -436 -488 -22
-16 -46 -34 -53 -41 -25 -24 -228 -161 -322 -218 -289 -175 -515 -252 -667
-225 -129 22 -212 82 -246 176 -21 61 -23 144 -3 144 8 0 16 -7 20 -15 9 -25
25 -18 84 38 31 29 73 64 92 78 40 29 237 149 245 149 2 0 55 30 117 66 583
345 793 612 928 1186 18 73 36 147 40 163 5 17 18 84 29 150 11 66 25 149 31
185 6 36 16 106 21 155 6 50 12 101 14 115 17 101 64 593 70 735 3 55 10 128
16 162 6 35 9 70 5 78 -3 9 -1 37 4 63 5 26 12 110 16 187 9 225 13 294 18
338 10 76 26 687 27 997 1 315 -14 759 -32 960 -6 63 -12 160 -15 215 -2 55
-9 113 -14 129 -5 15 -7 33 -4 38 3 5 1 28 -5 51 -6 23 -13 74 -15 112 -3 39
-14 138 -25 220 -41 300 -44 332 -47 435 -4 129 -15 198 -44 270 -12 30 -25
66 -30 80 -12 36 -40 89 -51 95 -11 7 -12 35 -1 35 4 0 44 -37 88 -82z m-996
-297 c0 -10 7 -24 15 -31 8 -7 15 -18 15 -25 0 -21 99 -241 220 -490 61 -124
69 -146 108 -270 67 -217 98 -369 128 -625 39 -345 50 -916 25 -1370 -5 -91
-9 -174 -9 -185 -1 -40 -32 -351 -37 -380 -4 -16 -9 -64 -11 -105 -3 -41 -10
-90 -15 -107 -6 -18 -8 -37 -4 -43 4 -6 2 -25 -4 -43 -5 -17 -12 -59 -15 -92
-2 -33 -19 -150 -36 -260 -17 -110 -32 -209 -34 -220 -1 -11 -5 -31 -9 -45 -3
-14 -8 -41 -11 -60 -29 -222 -157 -686 -236 -857 -11 -24 -20 -45 -20 -47 0
-3 -18 -43 -40 -89 -212 -452 -489 -683 -958 -802 -53 -14 -106 -25 -117 -25
-12 0 -48 -7 -80 -16 -43 -11 -107 -15 -220 -15 -138 0 -169 3 -225 21 -133
45 -222 130 -266 255 -27 79 -15 106 36 80 33 -17 47 -13 106 31 35 27 153 83
204 96 55 15 157 37 265 57 200 38 284 63 392 117 51 25 115 66 142 90 50 45
151 165 151 179 0 4 16 33 35 65 77 127 180 407 235 640 17 74 35 148 40 164
5 15 21 103 35 195 14 91 30 180 35 197 6 17 10 48 10 70 0 21 4 55 10 74 5
19 21 134 35 255 14 121 28 234 31 250 3 17 9 82 15 145 5 63 12 133 14 155 8
74 25 320 24 355 0 19 5 152 11 295 8 176 10 494 5 980 -5 536 -3 763 6 888
10 133 10 204 1 338 -7 94 -17 179 -22 189 -11 21 -3 53 11 44 5 -3 9 -13 9
-23z m-1525 -547 c49 -64 127 -156 173 -205 109 -114 174 -241 225 -444 9 -33
20 -79 26 -102 18 -68 42 -192 52 -273 5 -41 11 -88 14 -105 24 -158 31 -470
14 -660 -20 -224 -53 -462 -83 -590 -3 -11 -12 -54 -21 -95 -18 -84 -33 -143
-71 -275 -14 -49 -34 -119 -44 -155 -39 -134 -173 -507 -215 -595 -123 -261
-142 -298 -228 -429 -81 -124 -149 -206 -258 -312 -321 -312 -620 -409 -949
-309 -47 14 -107 33 -135 41 -27 8 -68 19 -90 24 -76 15 -207 69 -199 82 3 4
71 8 152 7 119 0 159 4 209 20 108 34 131 50 263 175 36 34 99 91 140 127 239
207 325 297 418 436 51 76 136 239 186 358 20 50 43 104 51 120 7 17 32 84 54
150 61 175 67 192 91 275 12 41 26 86 31 100 19 53 77 297 99 410 51 273 81
644 69 860 -22 374 -50 793 -60 860 -8 61 -7 87 5 140 21 85 21 263 1 320 -8
23 -15 56 -15 72 0 16 -7 42 -15 59 -17 33 -11 57 10 39 6 -5 52 -62 100 -126z
m-1076 -414 c7 -19 17 -50 21 -69 5 -18 13 -38 19 -44 6 -6 11 -17 11 -25 0
-14 20 -65 46 -115 8 -16 14 -33 14 -38 0 -5 11 -27 25 -49 53 -83 84 -158
100 -235 59 -280 46 -625 -36 -984 -11 -47 -24 -105 -29 -128 -16 -73 -119
-373 -170 -493 -152 -362 -367 -719 -588 -977 -77 -91 -242 -251 -317 -308
-84 -64 -179 -115 -257 -139 -44 -14 -84 -17 -165 -14 -101 3 -113 5 -184 40
-150 73 -227 157 -137 150 20 -2 50 4 67 12 26 14 42 31 93 101 52 70 128 150
231 243 152 137 257 251 363 394 72 96 177 256 197 297 4 9 19 36 33 61 189
330 339 769 404 1185 11 72 23 141 25 155 3 14 8 59 11 100 3 41 9 89 14 105
5 17 14 86 20 154 8 89 18 137 34 175 58 130 84 248 92 428 l6 148 23 -48 c12
-26 28 -63 34 -82z m-1224 -1037 c74 -21 100 -36 164 -96 56 -53 70 -75 102
-167 74 -213 -80 -577 -426 -1006 -102 -126 -191 -223 -374 -403 -373 -368
-596 -530 -841 -611 -81 -27 -109 -31 -197 -31 -56 0 -119 3 -140 7 -137 25
-289 170 -350 334 -62 168 -62 436 1 636 92 295 264 543 526 758 129 107 409
276 455 276 8 0 31 7 52 16 21 9 47 20 58 25 28 11 181 49 199 49 7 0 41 18
73 40 255 170 494 229 698 173z"/>
<path d="M8815 16443 c-244 -10 -472 -24 -545 -33 -487 -62 -680 -95 -985
-170 -27 -7 -68 -16 -90 -20 -22 -4 -53 -12 -70 -18 -16 -5 -59 -17 -95 -27
-96 -25 -171 -46 -210 -60 -19 -7 -62 -20 -95 -30 -33 -9 -75 -23 -93 -31 -18
-8 -41 -14 -50 -14 -10 0 -27 -7 -38 -15 -10 -8 -27 -15 -36 -15 -10 0 -32 -6
-50 -14 -18 -8 -51 -21 -73 -29 -55 -21 -194 -76 -230 -92 -16 -7 -55 -23 -85
-35 -113 -46 -486 -227 -610 -296 -36 -20 -87 -48 -113 -63 -63 -34 -95 -53
-265 -156 -70 -43 -357 -233 -387 -257 -5 -5 -77 -59 -160 -120 -157 -118
-348 -274 -519 -427 -99 -88 -435 -425 -516 -517 -41 -47 -90 -102 -108 -122
-18 -21 -50 -57 -70 -82 -20 -25 -50 -61 -67 -80 -16 -20 -43 -53 -60 -74 -16
-22 -42 -53 -56 -70 -116 -140 -339 -464 -488 -710 -150 -248 -237 -409 -360
-671 -29 -60 -58 -123 -66 -140 -7 -16 -27 -60 -44 -98 -17 -37 -31 -72 -31
-78 0 -6 -6 -23 -14 -37 -8 -15 -22 -47 -31 -72 -9 -25 -22 -54 -27 -64 -6
-11 -14 -31 -19 -45 -4 -14 -24 -71 -44 -126 -19 -55 -45 -129 -56 -165 -12
-36 -27 -81 -34 -100 -15 -42 -53 -171 -88 -300 -8 -30 -22 -80 -31 -111 -16
-55 -14 -89 5 -89 5 0 9 11 9 24 0 13 6 29 14 35 8 7 18 26 21 42 4 17 13 42
21 57 8 15 14 30 14 35 0 4 11 24 23 45 13 20 27 49 31 65 3 15 11 27 16 27 6
0 10 7 10 16 0 16 37 84 51 94 4 3 11 18 14 33 4 15 11 27 16 27 5 0 9 5 9 11
0 12 69 130 81 139 3 3 9 15 13 28 4 12 12 22 17 22 5 0 9 4 9 10 0 11 123
194 146 218 9 8 27 34 41 56 14 23 32 48 40 56 19 21 45 54 63 80 8 12 28 36
43 54 15 17 49 58 75 91 25 33 66 80 90 105 24 25 61 65 81 89 47 58 202 220
315 330 154 149 171 165 207 195 19 15 68 60 110 100 42 39 107 96 144 126 38
30 73 60 79 66 6 5 43 34 81 64 39 29 72 57 75 61 5 7 321 244 360 269 13 8
41 29 64 45 43 32 146 103 174 120 9 6 33 22 53 38 20 15 40 27 43 27 4 0 12
5 19 10 18 16 133 90 207 135 36 22 71 45 78 52 7 7 19 13 27 13 7 0 15 4 17
8 2 5 89 59 193 122 105 62 197 119 206 127 8 7 23 13 32 13 9 0 17 3 17 8 0
4 21 19 47 32 26 14 54 31 61 38 7 6 20 12 28 12 8 0 14 4 14 10 0 5 11 12 25
16 14 3 25 10 25 15 0 5 5 9 11 9 6 0 48 23 94 50 46 28 85 50 89 50 3 0 36
18 72 41 37 22 77 45 88 50 22 9 57 30 66 39 3 3 28 16 55 30 28 14 52 28 55
31 3 4 30 18 62 32 31 14 59 31 63 36 3 6 15 11 26 11 10 0 19 4 19 8 0 4 15
15 33 23 71 34 182 93 187 100 3 3 16 10 30 14 14 4 27 10 30 14 3 3 82 44
175 91 94 47 172 88 173 93 2 4 8 7 14 7 6 0 65 26 132 59 67 32 157 75 201
96 44 20 107 49 140 65 90 43 132 60 144 60 6 0 11 5 11 10 0 6 9 10 21 10 11
0 33 7 47 15 15 8 50 24 77 35 28 12 59 25 70 30 88 39 116 50 129 50 9 0 16
4 16 9 0 5 14 13 32 16 18 4 39 11 48 16 36 20 110 49 124 49 8 0 17 4 21 9 3
5 19 12 36 16 17 4 42 13 57 21 15 8 35 14 44 14 9 0 19 4 23 9 3 5 19 12 36
16 17 4 42 13 57 21 15 8 35 14 44 14 9 0 20 5 23 10 3 6 14 10 23 10 9 0 29
6 44 14 15 8 42 17 60 21 18 4 38 11 43 14 6 4 42 18 80 30 39 12 84 29 102
37 17 8 40 14 51 14 12 0 23 4 26 9 4 5 24 12 46 16 22 4 42 11 46 16 3 5 15
9 27 9 12 0 34 6 49 14 15 8 42 17 60 21 18 3 42 10 53 15 11 5 54 18 95 30
41 12 93 28 115 35 82 26 111 34 148 41 20 3 40 10 43 15 3 5 13 9 23 9 10 0
43 7 72 16 110 31 181 50 294 78 28 7 57 15 65 18 8 3 40 11 70 17 30 6 84 18
120 27 36 8 90 19 120 25 30 6 64 14 75 19 11 5 45 11 75 15 52 5 120 32 120
46 0 9 -38 19 -70 19 -14 0 -56 6 -95 14 -113 24 -401 66 -590 86 -110 12
-710 40 -790 38 -27 -1 -81 -3 -120 -5z"/>
<path d="M11985 14200 c-3 -5 -20 -10 -37 -10 -17 0 -54 -7 -82 -15 -28 -8
-121 -33 -206 -55 -85 -23 -177 -48 -205 -56 -27 -8 -70 -19 -95 -25 -24 -5
-49 -14 -54 -19 -6 -6 -21 -10 -35 -10 -15 -1 -37 -7 -51 -15 -14 -8 -37 -14
-51 -15 -14 0 -34 -7 -45 -15 -10 -8 -26 -15 -35 -15 -17 0 -127 -33 -164 -49
-30 -12 -86 -32 -120 -41 -48 -14 -119 -39 -137 -50 -10 -6 -26 -10 -36 -10
-10 0 -27 -7 -38 -15 -10 -8 -28 -15 -39 -15 -11 0 -33 -7 -49 -15 -15 -8 -36
-15 -45 -15 -10 0 -26 -7 -37 -15 -10 -8 -26 -15 -34 -15 -8 0 -28 -7 -44 -15
-15 -8 -36 -15 -45 -15 -10 0 -26 -7 -37 -15 -10 -8 -26 -15 -35 -15 -9 0 -38
-9 -65 -21 -27 -11 -58 -24 -69 -28 -11 -5 -37 -16 -58 -25 -21 -9 -45 -16
-53 -16 -9 0 -28 -6 -42 -13 -15 -8 -42 -21 -60 -30 -19 -9 -40 -17 -48 -17
-8 0 -31 -9 -51 -20 -21 -11 -43 -20 -50 -20 -8 0 -21 -4 -31 -10 -18 -9 -50
-23 -142 -59 -53 -21 -67 -27 -135 -56 -16 -7 -50 -21 -75 -30 -25 -10 -78
-33 -118 -52 -41 -18 -77 -33 -82 -33 -4 0 -30 -11 -57 -24 -26 -14 -66 -32
-88 -42 -45 -19 -140 -62 -230 -104 -126 -58 -197 -90 -202 -90 -4 0 -14 -6
-22 -14 -9 -7 -42 -24 -73 -36 -32 -13 -58 -27 -58 -32 0 -4 -4 -8 -10 -8 -18
0 -110 -44 -110 -52 0 -4 -5 -8 -11 -8 -6 0 -54 -22 -107 -49 -53 -27 -113
-56 -132 -65 -39 -19 -35 -17 -152 -81 -46 -25 -90 -49 -98 -55 -8 -5 -40 -21
-70 -36 -30 -15 -57 -29 -60 -33 -3 -3 -21 -14 -40 -25 -36 -19 -117 -63 -180
-98 -19 -11 -47 -27 -62 -36 -14 -9 -74 -44 -132 -77 -58 -33 -106 -63 -106
-67 0 -5 -5 -8 -11 -8 -9 0 -85 -42 -179 -100 -77 -46 -309 -186 -325 -194
-11 -6 -36 -23 -55 -37 -19 -15 -45 -29 -57 -33 -13 -4 -23 -12 -23 -17 0 -5
-6 -9 -13 -9 -8 0 -32 -13 -53 -28 -21 -16 -46 -31 -54 -35 -8 -4 -42 -25 -75
-47 -33 -22 -68 -43 -77 -46 -10 -4 -18 -10 -18 -13 0 -4 -20 -17 -44 -29 -24
-12 -49 -29 -56 -37 -7 -8 -17 -15 -22 -15 -5 0 -28 -13 -51 -29 -23 -16 -82
-55 -132 -87 -49 -32 -109 -72 -131 -88 -23 -17 -52 -38 -64 -46 -38 -25 -115
-83 -120 -90 -3 -4 -10 -9 -17 -11 -6 -2 -28 -17 -48 -34 -45 -36 -102 -81
-146 -115 -18 -14 -40 -32 -48 -41 -9 -9 -21 -18 -27 -20 -12 -4 -126 -105
-249 -220 -175 -163 -215 -203 -215 -210 0 -4 -31 -38 -68 -76 -182 -181 -361
-427 -452 -623 -74 -157 -114 -385 -91 -524 23 -144 72 -327 93 -351 4 -5 8
-15 8 -23 0 -13 12 -44 45 -117 32 -70 55 -124 55 -129 0 -3 21 -50 46 -103
25 -54 51 -109 56 -123 6 -14 14 -32 19 -40 5 -8 12 -22 15 -30 4 -8 22 -48
40 -88 19 -41 34 -75 34 -77 0 -2 14 -34 31 -72 17 -37 37 -81 44 -98 7 -16
27 -61 44 -100 18 -38 37 -81 43 -95 5 -14 16 -38 23 -55 12 -27 36 -82 67
-155 5 -14 17 -39 25 -57 l15 -31 187 0 c107 0 207 -5 236 -12 28 -6 73 -15
101 -19 29 -4 58 -12 65 -18 8 -6 33 -14 56 -18 24 -4 45 -10 48 -15 3 -4 21
-11 40 -14 19 -4 35 -11 35 -17 0 -6 4 -7 10 -4 11 7 -17 55 -32 55 -6 0 -63
44 -127 97 -355 297 -525 637 -544 1088 -2 46 25 275 39 340 17 73 82 289 95
315 4 8 14 31 21 50 14 37 98 204 143 285 77 137 226 350 379 540 98 122 415
446 586 600 235 211 703 582 970 768 85 59 445 301 534 358 256 164 801 489
1026 612 30 16 60 33 65 37 6 4 37 22 70 40 33 18 80 44 105 58 25 13 74 40
110 59 36 20 97 52 135 73 39 21 104 55 145 77 41 22 120 64 175 94 227 120
585 303 991 504 376 186 545 268 834 403 69 32 401 183 460 209 83 37 140 67
140 75 0 11 -38 10 -45 -2z"/>
<path d="M1586 9024 c-26 -69 18 -778 66 -1049 6 -33 14 -89 18 -125 9 -65 18
-119 47 -260 29 -145 45 -215 58 -265 7 -27 16 -68 20 -90 13 -74 37 -92 79
-60 11 8 29 15 40 15 12 0 30 7 40 15 11 8 29 15 40 15 11 0 38 6 61 14 53 18
171 38 269 45 44 3 81 11 83 16 2 6 -13 28 -32 50 -19 22 -52 65 -72 95 -21
30 -42 60 -48 66 -5 6 -17 22 -25 34 -8 12 -20 28 -25 34 -6 6 -22 29 -35 51
-13 22 -26 42 -29 45 -10 9 -51 69 -51 74 0 3 -24 45 -53 93 -29 48 -64 111
-78 138 -13 28 -27 52 -30 55 -3 3 -16 28 -29 55 -12 28 -35 77 -50 110 -45
95 -60 132 -60 143 0 5 -7 23 -15 38 -8 16 -15 36 -15 44 0 8 -7 24 -15 34 -8
11 -15 30 -15 42 0 13 -4 25 -9 28 -4 3 -11 24 -15 46 -3 23 -10 49 -16 58
-12 23 -30 94 -43 172 -6 36 -14 68 -19 71 -5 3 -11 42 -15 87 -6 79 -14 99
-27 66z"/>
<path d="M7957 10204 c-152 -7 -301 -18 -330 -24 -28 -7 -68 -14 -87 -15 -28
-3 -48 -17 -99 -71 -112 -117 -233 -278 -289 -384 -62 -118 -85 -164 -108
-225 -32 -84 -53 -154 -64 -215 -4 -25 -13 -72 -20 -105 -14 -71 -8 -223 12
-277 26 -68 62 -92 106 -69 9 5 42 21 74 36 101 49 230 155 433 359 278 279
451 484 606 721 66 100 141 243 137 262 -4 22 -32 22 -371 7z"/>
</g>
</svg>
